<?xml version="1.0" encoding="UTF-8" standalone="no"?>
<!-- Created with Inkscape (http://www.inkscape.org/) -->

<svg
   xmlns:dc="http://purl.org/dc/elements/1.1/"
   xmlns:cc="http://creativecommons.org/ns#"
   xmlns:rdf="http://www.w3.org/1999/02/22-rdf-syntax-ns#"
   xmlns:svg="http://www.w3.org/2000/svg"
   xmlns="http://www.w3.org/2000/svg"
   xmlns:sodipodi="http://sodipodi.sourceforge.net/DTD/sodipodi-0.dtd"
   xmlns:inkscape="http://www.inkscape.org/namespaces/inkscape"
   width="210mm"
   height="297mm"
   viewBox="0 0 210 297"
   version="1.1"
   id="svg8"
   inkscape:version="0.92.5 (2060ec1f9f, 2020-04-08)"
   sodipodi:docname="drawing.svg">
  <defs
     id="defs2" />
  <sodipodi:namedview
     id="base"
     pagecolor="#ffffff"
     bordercolor="#666666"
     borderopacity="1.0"
     inkscape:pageopacity="0.0"
     inkscape:pageshadow="2"
     inkscape:zoom="0.98994949"
     inkscape:cx="178.74758"
     inkscape:cy="623.10581"
     inkscape:document-units="mm"
     inkscape:current-layer="layer1"
     showgrid="false"
     inkscape:snap-others="false"
     inkscape:snap-nodes="false"
     inkscape:snap-grids="true"
     inkscape:window-width="3372"
     inkscape:window-height="1376"
     inkscape:window-x="2628"
     inkscape:window-y="27"
     inkscape:window-maximized="1" />
  <metadata
     id="metadata5">
    <rdf:RDF>
      <cc:Work
         rdf:about="">
        <dc:format>image/svg+xml</dc:format>
        <dc:type
           rdf:resource="http://purl.org/dc/dcmitype/StillImage" />
        <dc:title></dc:title>
      </cc:Work>
    </rdf:RDF>
  </metadata>
  <g
     inkscape:label="Layer 1"
     inkscape:groupmode="layer"
     id="layer1">
    <path
       id="path3743"
       sodipodi:type="arc"
       sodipodi:cx="128.44189"
       sodipodi:cy="151.10851"
       sodipodi:rx="3.1947575"
       sodipodi:ry="3.1947575"
       sodipodi:start="0"
       sodipodi:end="6.2506"
       sodipodi:open="true"
       d="m 131.63665,151.10851 a 3.1947575,3.1947575 0 0 1 -3.16873,3.19465 3.1947575,3.1947575 0 0 1 -3.22036,-3.14261 3.1947575,3.1947575 0 0 1 3.11627,-3.24585 3.1947575,3.1947575 0 0 1 3.27113,3.08972"
       style="stroke-width:0.04219491" />
    <path
       id="path3743-3"
       sodipodi:type="arc"
       sodipodi:cx="108.7787"
       sodipodi:cy="130.75836"
       sodipodi:rx="3.1947575"
       sodipodi:ry="3.1947575"
       sodipodi:start="0"
       sodipodi:end="6.2506"
       sodipodi:open="true"
       d="m 111.97346,130.75836 a 3.1947575,3.1947575 0 0 1 -3.16873,3.19465 3.1947575,3.1947575 0 0 1 -3.22036,-3.1426 3.1947575,3.1947575 0 0 1 3.11626,-3.24585 3.1947575,3.1947575 0 0 1 3.27113,3.08972"
       style="stroke-width:0.04219491" />
    <path
       id="path3743-6"
       sodipodi:type="arc"
       sodipodi:cx="128.82391"
       sodipodi:cy="140.64731"
       sodipodi:rx="3.1947575"
       sodipodi:ry="3.1947575"
       sodipodi:start="0"
       sodipodi:end="6.2506"
       sodipodi:open="true"
       d="m 132.01867,140.64731 a 3.1947575,3.1947575 0 0 1 -3.16873,3.19465 3.1947575,3.1947575 0 0 1 -3.22036,-3.1426 3.1947575,3.1947575 0 0 1 3.11626,-3.24586 3.1947575,3.1947575 0 0 1 3.27114,3.08972"
       style="stroke-width:0.04219491" />
    <path
       id="path3743-7"
       sodipodi:type="arc"
       sodipodi:cx="90.871643"
       sodipodi:cy="140.64734"
       sodipodi:rx="3.1947575"
       sodipodi:ry="3.1947575"
       sodipodi:start="0"
       sodipodi:end="6.2506"
       sodipodi:open="true"
       d="m 94.066401,140.64734 a 3.1947575,3.1947575 0 0 1 -3.168733,3.19465 3.1947575,3.1947575 0 0 1 -3.220358,-3.1426 3.1947575,3.1947575 0 0 1 3.116264,-3.24585 3.1947575,3.1947575 0 0 1 3.271131,3.08972"
       style="stroke-width:0.04219491" />
    <path
       id="path3743-5"
       sodipodi:type="arc"
       sodipodi:cx="90.871635"
       sodipodi:cy="151.3381"
       sodipodi:rx="3.1947575"
       sodipodi:ry="3.1947575"
       sodipodi:start="0"
       sodipodi:end="6.2506"
       sodipodi:open="true"
       d="m 94.066393,151.3381 a 3.1947575,3.1947575 0 0 1 -3.168732,3.19466 3.1947575,3.1947575 0 0 1 -3.220359,-3.14261 3.1947575,3.1947575 0 0 1 3.116265,-3.24585 3.1947575,3.1947575 0 0 1 3.27113,3.08972"
       style="stroke-width:0.04219491" />
    <path
       id="path3743-35"
       sodipodi:type="arc"
       sodipodi:cx="109.84778"
       sodipodi:cy="160.42528"
       sodipodi:rx="3.1947575"
       sodipodi:ry="3.1947575"
       sodipodi:start="0"
       sodipodi:end="6.2506"
       sodipodi:open="true"
       d="m 113.04254,160.42528 a 3.1947575,3.1947575 0 0 1 -3.16874,3.19465 3.1947575,3.1947575 0 0 1 -3.22036,-3.1426 3.1947575,3.1947575 0 0 1 3.11627,-3.24586 3.1947575,3.1947575 0 0 1 3.27113,3.08972"
       style="stroke-width:0.04219491" />
    <path
       id="path3743-62"
       sodipodi:type="arc"
       sodipodi:cx="109.58051"
       sodipodi:cy="148.39813"
       sodipodi:rx="3.1947575"
       sodipodi:ry="3.1947575"
       sodipodi:start="0"
       sodipodi:end="6.2506"
       sodipodi:open="true"
       d="m 112.77527,148.39813 a 3.1947575,3.1947575 0 0 1 -3.16873,3.19465 3.1947575,3.1947575 0 0 1 -3.22036,-3.1426 3.1947575,3.1947575 0 0 1 3.11626,-3.24585 3.1947575,3.1947575 0 0 1 3.27113,3.08972"
       style="stroke-width:0.04219491" />
    <path
       id="path3743-9"
       sodipodi:type="arc"
       sodipodi:cx="109.04596"
       sodipodi:cy="139.57825"
       sodipodi:rx="3.1947575"
       sodipodi:ry="3.1947575"
       sodipodi:start="0"
       sodipodi:end="6.2506"
       sodipodi:open="true"
       d="m 112.24072,139.57825 a 3.1947575,3.1947575 0 0 1 -3.16874,3.19465 3.1947575,3.1947575 0 0 1 -3.22035,-3.1426 3.1947575,3.1947575 0 0 1 3.11626,-3.24586 3.1947575,3.1947575 0 0 1 3.27113,3.08972"
       style="stroke-width:0.04219491" />
    <path
       sodipodi:type="star"
       style="fill:none;stroke:#000000;stroke-width:1.06500006;stroke-miterlimit:4;stroke-dasharray:none;stroke-opacity:1"
       id="path6151"
       sodipodi:sides="4"
       sodipodi:cx="79.111778"
       sodipodi:cy="160.95981"
       sodipodi:r1="9.6254148"
       sodipodi:r2="6.8061953"
       sodipodi:arg1="1.5430257"
       sodipodi:arg2="2.3284239"
       inkscape:flatsided="true"
       inkscape:rounded="0"
       inkscape:randomized="0"
       d="m 79.379048,170.58151 -9.888973,-9.35443 9.354434,-9.88898 9.888973,9.35444 z"
       inkscape:transform-center-y="-2.7916851e-06"
       transform="matrix(1.8777747,0,0,0.97260274,-38.839953,-6.0136547)"
       inkscape:transform-center-x="-3.6952114e-06" />
    <path
       id="path6151-7"
       transform="scale(0.26458333)"
       style="fill:none;stroke:#000000;stroke-width:5.43972111;stroke-miterlimit:4;stroke-dasharray:none;stroke-opacity:1"
       d="m 412.26562,495.20117 -66.38867,36.35156 70.18164,34.38672 66.39063,-36.35156 z" />
    <path
       style="fill:none;stroke:#000000;stroke-width:0.765;stroke-linecap:butt;stroke-linejoin:miter;stroke-opacity:1;stroke-miterlimit:4;stroke-dasharray:none"
       d="m 90.871639,142.25094 v 10.42351"
       id="path6174"
       inkscape:connector-curvature="0" />
    <path
       style="fill:none;stroke:#000000;stroke-width:0.765;stroke-linecap:butt;stroke-linejoin:miter;stroke-opacity:1;stroke-miterlimit:4;stroke-dasharray:none"
       d="m 128.55664,141.44913 0.26727,10.42351"
       id="path6176"
       inkscape:connector-curvature="0" />
    <path
       style="fill:none;stroke:#000000;stroke-width:0.765;stroke-linecap:butt;stroke-linejoin:miter;stroke-opacity:1;stroke-miterlimit:4;stroke-dasharray:none"
       d="m 109.5805,150.26903 v 9.35443"
       id="path6180"
       inkscape:connector-curvature="0" />
  </g>
</svg>
